<svg width="915" height="224" viewBox="0 0 915 224" fill="none" xmlns="http://www.w3.org/2000/svg">
<path d="M836.849 98.0373C831.566 103.32 830.056 103.32 824.773 98.0373C819.49 92.7543 819.49 91.2451 824.773 85.9621C825.247 85.4884 825.69 85.0572 826.109 84.6685C827.136 83.7143 827.81 82.4024 827.81 81.0002C827.81 79.598 827.136 78.2859 826.109 77.3315C825.691 76.9425 825.247 76.5111 824.773 76.0373C819.49 70.7543 819.49 69.2451 824.773 63.9621C830.056 58.6794 831.566 58.6792 836.849 63.9621C842.131 69.245 842.131 70.7545 836.849 76.0373C836.374 76.5113 835.931 76.9428 835.512 77.3318C834.485 78.286 833.81 79.598 833.81 81.0002C833.81 82.4024 834.485 83.7142 835.512 84.6682C835.931 85.0569 836.375 85.4882 836.849 85.9621C837.322 86.4357 837.753 86.879 838.142 87.2974C839.096 88.325 840.408 88.9992 841.811 88.9992C843.213 88.9992 844.526 88.3249 845.48 87.297C845.868 86.8784 846.3 86.4349 846.773 85.9611C852.056 80.6782 853.566 80.6783 858.849 85.9611C864.132 91.2441 864.132 92.7533 858.849 98.0363C853.566 103.319 852.056 103.319 846.773 98.0363C846.3 97.5626 845.868 97.1192 845.48 96.7006C844.526 95.6732 843.214 94.9992 841.812 94.9992C840.409 94.9992 839.097 95.6734 838.143 96.7008C837.754 97.1196 837.323 97.5632 836.849 98.0373Z" fill="black"/>
<path d="M836.849 125.962C831.566 120.679 830.056 120.679 824.773 125.962C819.491 131.245 819.49 132.754 824.773 138.037C825.247 138.511 825.691 138.942 826.11 139.331C827.137 140.285 827.811 141.597 827.811 142.999C827.811 144.401 827.137 145.713 826.11 146.667C825.691 147.056 825.247 147.487 824.773 147.961C819.49 153.244 819.491 154.753 824.773 160.036C830.056 165.319 831.566 165.319 836.849 160.036C842.132 154.753 842.132 153.244 836.849 147.961C836.375 147.487 835.931 147.056 835.513 146.668C834.486 145.713 833.811 144.401 833.811 142.999C833.811 141.597 834.486 140.285 835.513 139.331C835.931 138.942 836.375 138.511 836.849 138.037C837.323 137.563 837.754 137.119 838.143 136.701C839.097 135.673 840.409 134.999 841.811 134.999C843.214 134.999 844.525 135.673 845.479 136.701C845.868 137.12 846.299 137.564 846.773 138.038C852.056 143.321 853.567 143.321 858.85 138.038C864.133 132.755 864.132 131.245 858.85 125.962C853.567 120.679 852.056 120.679 846.773 125.962C846.3 126.435 845.869 126.878 845.481 127.297C844.527 128.325 843.214 128.999 841.811 128.999C840.409 128.999 839.096 128.325 838.141 127.297C837.753 126.879 837.322 126.435 836.849 125.962Z" fill="black"/>
<path d="M784.773 98.0383C790.057 103.321 791.567 103.321 796.85 98.0383C802.133 92.7553 802.133 91.2451 796.85 85.9621C796.376 85.4883 795.932 85.0573 795.514 84.6688C794.486 83.7151 793.812 82.4034 793.812 81.0013C793.812 79.599 794.486 78.287 795.513 77.3328C795.932 76.9438 796.376 76.5123 796.85 76.0383C802.132 70.7555 802.132 69.2458 796.85 63.9631C791.567 58.6801 790.057 58.68 784.773 63.9631C779.491 69.2458 779.491 70.7556 784.773 76.0383C785.247 76.5123 785.691 76.9438 786.11 77.3328C787.137 78.287 787.812 79.599 787.812 81.0013C787.812 82.4034 787.137 83.7151 786.11 84.6688C785.691 85.0573 785.247 85.4883 784.773 85.9621C784.3 86.4357 783.869 86.8792 783.48 87.2979C782.527 88.3259 781.215 89.0002 779.812 89.0002C778.41 89.0002 777.097 88.3259 776.143 87.2982C775.754 86.8796 775.323 86.436 774.849 85.9621C769.566 80.6792 768.056 80.6791 762.773 85.9621C757.491 91.2451 757.491 92.7544 762.773 98.0373C768.056 103.32 769.566 103.32 774.849 98.0373C775.322 97.5639 775.753 97.1207 776.142 96.7024C777.096 95.6745 778.409 95.0002 779.812 95.0002C781.214 95.0002 782.527 95.6747 783.481 96.703C783.869 97.1215 784.3 97.5648 784.773 98.0383Z" fill="black"/>
<path d="M784.775 125.962C790.057 120.679 791.567 120.679 796.85 125.962C802.133 131.245 802.133 132.754 796.85 138.037C796.376 138.511 795.933 138.942 795.514 139.331C794.487 140.285 793.813 141.597 793.813 142.999C793.813 144.401 794.487 145.713 795.514 146.668C795.932 147.057 796.376 147.488 796.85 147.962C802.133 153.245 802.133 154.754 796.85 160.037C791.567 165.32 790.057 165.32 784.775 160.037C779.492 154.754 779.492 153.245 784.775 147.962C785.249 147.488 785.692 147.057 786.111 146.668C787.138 145.713 787.813 144.401 787.813 142.999C787.813 141.597 787.138 140.285 786.111 139.331C785.692 138.942 785.248 138.511 784.775 138.037C784.301 137.564 783.87 137.12 783.481 136.702C782.527 135.674 781.215 135 779.812 135C778.41 135 777.097 135.674 776.143 136.702C775.755 137.121 775.323 137.564 774.85 138.038C769.567 143.321 768.057 143.321 762.775 138.038C757.491 132.755 757.492 131.246 762.775 125.963C768.058 120.68 769.567 120.68 774.85 125.963C775.323 126.437 775.755 126.88 776.143 127.299C777.098 128.326 778.409 129 779.812 129C781.214 129 782.526 128.326 783.48 127.299C783.869 126.88 784.3 126.436 784.775 125.962Z" fill="black"/>
<path fill-rule="evenodd" clip-rule="evenodd" d="M171.406 80.8662C176.765 80.8662 181.407 82.2253 185.332 84.9424C189.332 87.5839 192.427 91.2447 194.615 95.9238C196.804 100.603 197.897 105.961 197.897 111.999C197.897 118.037 196.804 123.396 194.615 128.075C192.426 132.755 189.369 136.453 185.444 139.17C181.52 141.811 176.84 143.132 171.406 143.132C167.255 143.132 163.482 142.113 160.086 140.075C156.765 138.037 154.01 135.17 151.821 131.472V163.85H141.066V81.999H151.029V93.4326C153.218 89.4327 156.086 86.3381 159.633 84.1494C163.18 81.9608 167.104 80.8663 171.406 80.8662ZM169.256 90.4893C166.011 90.4893 163.067 91.3201 160.426 92.9805C157.784 94.6409 155.671 97.0557 154.086 100.226C152.576 103.395 151.821 107.32 151.821 111.999C151.821 116.452 152.576 120.302 154.086 123.547C155.595 126.792 157.671 129.283 160.312 131.019C163.029 132.754 166.011 133.622 169.256 133.622C174.388 133.622 178.577 131.773 181.822 128.075C185.068 124.302 186.69 118.943 186.69 111.999C186.69 105.131 185.068 99.8476 181.822 96.1494C178.577 92.3759 174.388 90.4893 169.256 90.4893Z" fill="black"/>
<path fill-rule="evenodd" clip-rule="evenodd" d="M93.209 59.0166C99.0957 59.0167 104.53 60.1112 109.511 62.2998C114.567 64.413 118.945 67.394 122.644 71.2432C126.417 75.0168 129.323 79.4703 131.36 84.6025C133.474 89.7347 134.53 95.2818 134.53 101.244C134.53 107.206 133.474 112.791 131.36 117.999C129.323 123.131 126.417 127.623 122.644 131.472C118.945 135.321 114.567 138.34 109.511 140.528C104.53 142.642 99.0957 143.698 93.209 143.698C87.3221 143.698 81.8497 142.642 76.793 140.528C71.8118 138.34 67.4716 135.321 63.7734 131.472C60.0753 127.623 57.1699 123.131 55.0566 117.999C53.019 112.791 52 107.206 52 101.244C52 95.2819 53.0189 89.7346 55.0566 84.6025C57.1699 79.4703 60.0752 75.0168 63.7734 71.2432C67.4716 67.394 71.8117 64.4131 76.793 62.2998C81.8497 60.1111 87.3221 59.0166 93.209 59.0166ZM93.209 69.5459C88.8315 69.5459 84.8307 70.3757 81.208 72.0361C77.6609 73.6211 74.6041 75.8479 72.0381 78.7158C69.4721 81.5837 67.472 84.9421 66.0381 88.791C64.6796 92.6401 64 96.7913 64 101.244C64 105.697 64.6796 109.848 66.0381 113.697C67.4721 117.546 69.472 120.943 72.0381 123.887C74.6041 126.83 77.6609 129.132 81.208 130.792C84.8307 132.377 88.8315 133.17 93.209 133.17C97.5863 133.17 101.549 132.377 105.096 130.792C108.718 129.132 111.813 126.83 114.379 123.887C116.945 120.943 118.907 117.546 120.266 113.697C121.7 109.848 122.417 105.697 122.417 101.244C122.417 96.7913 121.7 92.6401 120.266 88.791C118.907 84.9421 116.945 81.5837 114.379 78.7158C111.813 75.8478 108.718 73.6211 105.096 72.0361C101.549 70.3758 97.5863 69.546 93.209 69.5459Z" fill="black"/>
<path fill-rule="evenodd" clip-rule="evenodd" d="M231.571 80.8662C236.024 80.8662 240.025 81.7348 243.572 83.4707C247.195 85.1311 250.214 87.4704 252.629 90.4893C255.119 93.5081 256.93 97.0932 258.062 101.244C259.27 105.32 259.61 109.773 259.082 114.604H214.118C214.345 118.133 214.992 121.266 216.062 124C217.495 127.471 219.534 130.113 222.175 131.924C224.816 133.735 227.987 134.642 231.685 134.642C236.137 134.642 239.798 133.509 242.666 131.245C245.609 128.981 247.535 125.811 248.44 121.735H259.195C257.686 128.377 254.516 133.623 249.686 137.472C244.931 141.245 239.006 143.132 231.911 143.132C226.175 143.132 221.156 141.849 216.854 139.283C212.553 136.642 209.193 132.943 206.778 128.188C204.363 123.434 203.156 117.924 203.156 111.66C203.156 105.698 204.363 100.414 206.778 95.8105C209.269 91.2067 212.628 87.5839 216.854 84.9424C221.156 82.2254 226.062 80.8663 231.571 80.8662ZM231.346 89.0176C227.874 89.0176 224.816 89.9608 222.175 91.8477C219.609 93.659 217.609 96.263 216.175 99.6592C215.189 101.942 214.543 104.546 214.234 107.471H247.647C247.421 101.735 245.836 97.2443 242.893 93.999C240.025 90.6783 236.176 89.0177 231.346 89.0176Z" fill="black"/>
<path d="M354.702 59.583C360.363 59.583 365.381 60.6775 369.759 62.8662C374.212 64.9794 377.797 67.9983 380.514 71.9229C383.306 75.8474 384.853 80.4891 385.155 85.8477H373.155C373.004 82.527 372.099 79.6214 370.438 77.1309C368.854 74.5649 366.74 72.5648 364.099 71.1309C361.457 69.6969 358.363 68.9795 354.815 68.9795C351.193 68.9795 348.136 69.6213 345.646 70.9043C343.155 72.1873 341.267 73.8849 339.984 75.998C338.701 78.0358 338.06 80.2626 338.06 82.6777C338.06 85.3948 338.739 87.5837 340.098 89.2441C341.456 90.8291 343.268 92.0748 345.532 92.9805C347.796 93.8861 350.211 94.6026 352.777 95.1309L364.551 97.5088C371.494 98.9428 376.853 101.282 380.627 104.527C384.401 107.697 386.287 112.339 386.287 118.452C386.287 123.056 385.08 127.245 382.665 131.019C380.25 134.717 376.74 137.66 372.137 139.849C367.608 142.037 362.06 143.132 355.494 143.132C349.004 143.132 343.419 142.037 338.739 139.849C334.06 137.584 330.399 134.452 327.758 130.452C325.192 126.377 323.72 121.697 323.343 116.414H335.229C335.607 121.622 337.457 125.811 340.777 128.98C344.098 132.15 348.928 133.735 355.268 133.735C358.815 133.735 361.985 133.207 364.777 132.15C367.57 131.018 369.759 129.433 371.344 127.396C373.004 125.358 373.834 122.905 373.834 120.037C373.834 116.49 372.665 113.773 370.325 111.886C367.986 109.923 364.363 108.414 359.457 107.357L348.022 105.094C345.23 104.565 342.513 103.772 339.871 102.716C337.23 101.659 334.852 100.301 332.739 98.6406C330.701 96.9047 329.079 94.7914 327.871 92.3008C326.664 89.8102 326.06 86.8291 326.06 83.3574C326.06 78.829 327.267 74.7904 329.683 71.2432C332.173 67.6207 335.569 64.7906 339.871 62.7529C344.173 60.6397 349.117 59.583 354.702 59.583Z" fill="black"/>
<path fill-rule="evenodd" clip-rule="evenodd" d="M420.748 80.8662C425.201 80.8663 429.201 81.7349 432.748 83.4707C436.371 85.1311 439.39 87.4704 441.805 90.4893C444.295 93.5082 446.107 97.0931 447.239 101.244C448.447 105.32 448.786 109.773 448.258 114.604H403.294C403.521 118.133 404.168 121.266 405.238 124C406.672 127.472 408.71 130.113 411.352 131.924C413.993 133.735 417.163 134.642 420.861 134.642C425.314 134.642 428.975 133.509 431.843 131.245C434.786 128.981 436.711 125.811 437.616 121.735H448.371C446.862 128.377 443.692 133.623 438.861 137.472C434.107 141.245 428.181 143.132 421.087 143.132C415.351 143.132 410.332 141.849 406.03 139.283C401.728 136.642 398.37 132.943 395.955 128.188C393.54 123.434 392.332 117.924 392.332 111.66C392.332 105.698 393.54 100.414 395.955 95.8105C398.446 91.2067 401.804 87.5839 406.03 84.9424C410.332 82.2253 415.238 80.8662 420.748 80.8662ZM420.521 89.0176C417.05 89.0176 413.993 89.961 411.352 91.8477C408.786 93.659 406.786 96.263 405.352 99.6592C404.366 101.942 403.718 104.546 403.41 107.471H436.823C436.597 101.735 435.012 97.2443 432.068 93.999C429.2 90.6783 425.352 89.0176 420.521 89.0176Z" fill="black"/>
<path d="M478.423 80.8662C483.178 80.8662 487.367 81.697 490.989 83.3574C494.612 84.9424 497.48 87.2438 499.594 90.2627C501.707 93.206 502.914 96.7157 503.216 100.791H492.914C492.612 97.0931 491.14 94.2252 488.499 92.1875C485.933 90.0742 482.574 89.0176 478.423 89.0176C474.725 89.0176 471.706 89.8106 469.366 91.3955C467.102 92.9049 465.97 95.0176 465.97 97.7344C465.97 100.225 466.801 102.15 468.461 103.509C470.197 104.792 472.951 105.811 476.725 106.565L486.688 108.377C492.574 109.509 496.951 111.396 499.819 114.037C502.687 116.603 504.122 120.037 504.122 124.339C504.122 130.15 501.933 134.754 497.556 138.15C493.254 141.471 487.178 143.132 479.329 143.132C471.555 143.132 465.403 141.321 460.875 137.698C456.347 134 453.781 128.98 453.177 122.641H463.479C463.706 126.414 465.253 129.434 468.121 131.698C471.064 133.887 474.838 134.981 479.441 134.981C483.668 134.981 487.027 134.226 489.518 132.717C492.008 131.207 493.254 129.018 493.254 126.15C493.254 123.584 492.423 121.66 490.763 120.377C489.102 119.019 486.31 117.962 482.386 117.207L472.876 115.396C467.366 114.339 463.102 112.415 460.083 109.622C457.064 106.754 455.555 103.094 455.555 98.6406C455.555 95.1689 456.498 92.1122 458.385 89.4707C460.347 86.7537 463.027 84.6403 466.423 83.1309C469.819 81.6214 473.819 80.8662 478.423 80.8662Z" fill="black"/>
<path fill-rule="evenodd" clip-rule="evenodd" d="M536.086 80.8662C540.539 80.8662 544.425 81.9231 547.746 84.0361C551.067 86.1494 553.784 89.1313 555.897 92.9805V81.999H565.974V142H555.897V130.905C553.784 134.754 550.954 137.773 547.407 139.962C543.935 142.075 540.01 143.132 535.633 143.132C530.274 143.132 525.595 141.811 521.595 139.17C517.67 136.453 514.614 132.755 512.425 128.075C510.236 123.396 509.142 118.037 509.142 111.999C509.142 105.961 510.236 100.603 512.425 95.9238C514.613 91.1691 517.708 87.4707 521.708 84.8291C525.784 82.1875 530.576 80.8662 536.086 80.8662ZM537.671 90.4893C532.539 90.4893 528.35 92.3389 525.104 96.0371C521.859 99.7352 520.236 105.056 520.236 111.999C520.236 118.867 521.859 124.188 525.104 127.962C528.35 131.736 532.539 133.622 537.671 133.622C541.143 133.622 544.161 132.754 546.728 131.019C549.369 129.207 551.445 126.679 552.954 123.434C554.464 120.188 555.219 116.301 555.219 111.772C555.219 107.244 554.426 103.395 552.841 100.226C551.331 96.9803 549.256 94.5654 546.614 92.9805C543.973 91.3201 540.992 90.4893 537.671 90.4893Z" fill="black"/>
<path fill-rule="evenodd" clip-rule="evenodd" d="M698.731 80.8662C703.184 80.8662 707.185 81.7348 710.732 83.4707C714.355 85.1311 717.374 87.4704 719.789 90.4893C722.28 93.5081 724.091 97.0932 725.223 101.244C726.43 105.32 726.771 109.773 726.242 114.604H681.278C681.506 118.133 682.152 121.266 683.222 124C684.656 127.471 686.694 130.113 689.335 131.924C691.977 133.735 695.147 134.642 698.845 134.642C703.298 134.642 706.958 133.509 709.826 131.245C712.77 128.981 714.694 125.811 715.6 121.735H726.355C724.846 128.377 721.676 133.623 716.846 137.472C712.091 141.245 706.166 143.132 699.071 143.132C693.335 143.132 688.317 141.849 684.015 139.283C679.713 136.642 676.354 132.943 673.938 128.188C671.523 123.434 670.316 117.924 670.316 111.66C670.316 105.698 671.523 100.414 673.938 95.8105C676.429 91.2067 679.788 87.584 684.015 84.9424C688.317 82.2254 693.222 80.8663 698.731 80.8662ZM698.505 89.0176C695.033 89.0177 691.976 89.9609 689.335 91.8477C686.769 93.659 684.769 96.263 683.335 99.6592C682.349 101.942 681.703 104.546 681.395 107.471H714.808C714.581 101.735 712.996 97.2443 710.053 93.999C707.185 90.6782 703.335 89.0176 698.505 89.0176Z" fill="black"/>
<path d="M296.152 80.8662C302.266 80.8662 307.172 82.8293 310.87 86.7539C314.644 90.603 316.53 96.0746 316.53 103.169V142H305.775V106.792C305.775 101.584 304.643 97.5835 302.379 94.791C300.115 91.9233 296.794 90.4893 292.417 90.4893C289.7 90.4893 287.209 91.2067 284.945 92.6406C282.681 94.0746 280.869 96.1123 279.511 98.7539C278.228 101.32 277.586 104.377 277.586 107.924V142H266.831V81.999H276.794V92.3008C278.832 88.9045 281.511 86.1494 284.832 84.0361C288.153 81.9231 291.926 80.8663 296.152 80.8662Z" fill="black"/>
<path d="M643.362 80.8662C649.551 80.8662 654.456 82.8293 658.079 86.7539C661.777 90.6031 663.627 96.0744 663.627 103.169V142H652.872V106.679C652.872 101.471 651.74 97.4703 649.476 94.6777C647.211 91.8854 643.966 90.4893 639.739 90.4893C637.022 90.4893 634.532 91.2067 632.268 92.6406C630.079 93.9991 628.343 95.9613 627.06 98.5273C625.777 101.093 625.136 104.075 625.136 107.471V142H614.381V106.679C614.381 101.471 613.249 97.4703 610.984 94.6777C608.72 91.8853 605.437 90.4893 601.135 90.4893C598.418 90.4893 595.927 91.2066 593.663 92.6406C591.474 93.9991 589.738 95.9613 588.455 98.5273C587.172 101.093 586.53 104.075 586.53 107.471V142H575.775V81.999H585.738V92.3008C587.852 88.7535 590.493 85.9606 593.663 83.9229C596.908 81.8852 600.607 80.8662 604.758 80.8662C609.211 80.8662 613.022 81.9987 616.191 84.2627C619.437 86.4514 621.701 89.5837 622.984 93.6592C625.098 89.7346 627.853 86.6402 631.249 84.376C634.721 82.0364 638.758 80.8662 643.362 80.8662Z" fill="black"/>
</svg>
