<svg width="916" height="224" viewBox="0 0 916 224" fill="none" xmlns="http://www.w3.org/2000/svg">
<path d="M837.659 98.0373C832.376 103.32 830.866 103.32 825.583 98.0373C820.3 92.7543 820.3 91.2451 825.583 85.9621C826.057 85.4884 826.501 85.0572 826.919 84.6685C827.946 83.7143 828.621 82.4024 828.621 81.0002C828.621 79.598 827.946 78.2859 826.919 77.3315C826.501 76.9425 826.057 76.5111 825.583 76.0373C820.3 70.7543 820.3 69.2451 825.583 63.9621C830.866 58.6794 832.376 58.6792 837.659 63.9621C842.942 69.245 842.941 70.7545 837.659 76.0373C837.185 76.5113 836.741 76.9428 836.322 77.3318C835.295 78.286 834.621 79.598 834.621 81.0002C834.621 82.4024 835.295 83.7142 836.322 84.6682C836.741 85.0569 837.185 85.4882 837.659 85.9621C838.132 86.4357 838.563 86.879 838.952 87.2974C839.906 88.325 841.218 88.9992 842.621 88.9992C844.023 88.9992 845.336 88.3249 846.29 87.297C846.678 86.8784 847.11 86.4349 847.583 85.9611C852.866 80.6782 854.376 80.6783 859.659 85.9611C864.942 91.2441 864.942 92.7533 859.659 98.0363C854.376 103.319 852.866 103.319 847.583 98.0363C847.11 97.5626 846.678 97.1192 846.29 96.7006C845.336 95.6732 844.024 94.9992 842.622 94.9992C841.219 94.9992 839.907 95.6734 838.953 96.7008C838.564 97.1196 838.133 97.5632 837.659 98.0373Z" fill="white"/>
<path d="M837.659 125.962C832.376 120.679 830.866 120.679 825.583 125.962C820.301 131.245 820.3 132.754 825.583 138.037C826.057 138.511 826.501 138.942 826.92 139.331C827.947 140.285 828.621 141.597 828.621 142.999C828.621 144.401 827.947 145.713 826.92 146.667C826.501 147.056 826.057 147.487 825.583 147.961C820.3 153.244 820.301 154.753 825.583 160.036C830.866 165.319 832.376 165.319 837.659 160.036C842.942 154.753 842.942 153.244 837.659 147.961C837.185 147.487 836.741 147.056 836.323 146.668C835.296 145.713 834.621 144.401 834.621 142.999C834.621 141.597 835.296 140.285 836.323 139.331C836.741 138.942 837.185 138.511 837.659 138.037C838.133 137.563 838.564 137.119 838.953 136.701C839.907 135.673 841.219 134.999 842.621 134.999C844.024 134.999 845.335 135.673 846.289 136.701C846.678 137.12 847.109 137.564 847.583 138.038C852.866 143.321 854.377 143.321 859.66 138.038C864.943 132.755 864.943 131.245 859.66 125.962C854.377 120.679 852.866 120.679 847.583 125.962C847.11 126.435 846.679 126.878 846.291 127.297C845.337 128.325 844.024 128.999 842.622 128.999C841.219 128.999 839.906 128.325 838.951 127.297C838.563 126.879 838.132 126.435 837.659 125.962Z" fill="white"/>
<path d="M785.584 98.0383C790.867 103.321 792.377 103.321 797.66 98.0383C802.943 92.7553 802.943 91.2451 797.66 85.9621C797.186 85.4883 796.742 85.0573 796.324 84.6688C795.296 83.7151 794.622 82.4034 794.622 81.0013C794.622 79.599 795.296 78.287 796.323 77.3328C796.742 76.9438 797.186 76.5123 797.66 76.0383C802.942 70.7555 802.942 69.2458 797.66 63.9631C792.377 58.6801 790.867 58.68 785.584 63.9631C780.301 69.2458 780.301 70.7556 785.584 76.0383C786.058 76.5123 786.501 76.9438 786.92 77.3328C787.948 78.287 788.622 79.599 788.622 81.0013C788.622 82.4034 787.947 83.7151 786.92 84.6688C786.501 85.0573 786.057 85.4883 785.584 85.9621C785.11 86.4357 784.679 86.8792 784.291 87.2979C783.337 88.3259 782.025 89.0002 780.622 89.0002C779.22 89.0002 777.907 88.3259 776.953 87.2982C776.564 86.8796 776.133 86.436 775.659 85.9621C770.376 80.6792 768.867 80.6791 763.584 85.9621C758.301 91.2451 758.301 92.7544 763.584 98.0373C768.867 103.32 770.376 103.32 775.659 98.0373C776.132 97.5639 776.563 97.1207 776.952 96.7024C777.906 95.6745 779.219 95.0002 780.622 95.0002C782.024 95.0002 783.337 95.6747 784.291 96.703C784.679 97.1215 785.11 97.5648 785.584 98.0383Z" fill="white"/>
<path d="M785.585 125.962C790.868 120.679 792.377 120.679 797.66 125.962C802.943 131.245 802.943 132.754 797.66 138.037C797.186 138.511 796.743 138.942 796.324 139.331C795.297 140.285 794.623 141.597 794.623 142.999C794.623 144.401 795.297 145.713 796.324 146.668C796.742 147.057 797.186 147.488 797.66 147.962C802.943 153.245 802.943 154.754 797.66 160.037C792.377 165.32 790.867 165.32 785.585 160.037C780.302 154.754 780.302 153.245 785.585 147.962C786.059 147.488 786.502 147.057 786.921 146.668C787.949 145.713 788.623 144.401 788.623 142.999C788.623 141.597 787.949 140.285 786.921 139.331C786.502 138.942 786.058 138.511 785.585 138.037C785.111 137.564 784.68 137.12 784.291 136.702C783.337 135.674 782.025 135 780.622 135C779.22 135 777.908 135.674 776.953 136.702C776.565 137.121 776.134 137.564 775.66 138.038C770.377 143.321 768.867 143.321 763.585 138.038C758.302 132.755 758.302 131.246 763.585 125.963C768.868 120.68 770.377 120.68 775.66 125.963C776.133 126.437 776.565 126.88 776.953 127.299C777.908 128.326 779.219 129 780.622 129C782.024 129 783.336 128.326 784.29 127.299C784.679 126.88 785.111 126.436 785.585 125.962Z" fill="white"/>
<path fill-rule="evenodd" clip-rule="evenodd" d="M172.216 80.8662C177.575 80.8662 182.217 82.2253 186.142 84.9424C190.142 87.5839 193.237 91.2447 195.425 95.9238C197.614 100.603 198.707 105.961 198.708 111.999C198.708 118.037 197.614 123.396 195.425 128.075C193.237 132.755 190.179 136.453 186.254 139.17C182.33 141.811 177.65 143.132 172.216 143.132C168.065 143.132 164.292 142.113 160.896 140.075C157.575 138.037 154.82 135.17 152.631 131.472V163.85H141.876V81.999H151.839V93.4326C154.028 89.4327 156.896 86.3381 160.443 84.1494C163.99 81.9608 167.915 80.8663 172.216 80.8662ZM170.066 90.4893C166.821 90.4893 163.877 91.3201 161.236 92.9805C158.594 94.6409 156.481 97.0557 154.896 100.226C153.387 103.395 152.631 107.32 152.631 111.999C152.631 116.452 153.387 120.302 154.896 123.547C156.405 126.792 158.481 129.283 161.123 131.019C163.84 132.754 166.821 133.622 170.066 133.622C175.198 133.622 179.387 131.773 182.632 128.075C185.878 124.302 187.5 118.943 187.5 111.999C187.5 105.131 185.878 99.8476 182.632 96.1494C179.387 92.3759 175.198 90.4893 170.066 90.4893Z" fill="white"/>
<path fill-rule="evenodd" clip-rule="evenodd" d="M94.019 59.0166C99.9058 59.0167 105.34 60.1112 110.321 62.2998C115.377 64.413 119.755 67.394 123.454 71.2432C127.227 75.0168 130.133 79.4703 132.17 84.6025C134.284 89.7347 135.34 95.2818 135.34 101.244C135.34 107.206 134.284 112.791 132.17 117.999C130.133 123.131 127.227 127.623 123.454 131.472C119.755 135.321 115.378 138.34 110.321 140.528C105.34 142.642 99.9058 143.698 94.019 143.698C88.1321 143.698 82.6597 142.642 77.603 140.528C72.6218 138.34 68.2817 135.321 64.5835 131.472C60.8854 127.623 57.9799 123.131 55.8667 117.999C53.829 112.791 52.8101 107.206 52.8101 101.244C52.8101 95.2819 53.829 89.7346 55.8667 84.6025C57.98 79.4703 60.8853 75.0168 64.5835 71.2432C68.2817 67.394 72.6218 64.4131 77.603 62.2998C82.6597 60.1111 88.1321 59.0166 94.019 59.0166ZM94.019 69.5459C89.6416 69.5459 85.6408 70.3757 82.0181 72.0361C78.4709 73.6211 75.4142 75.8479 72.8481 78.7158C70.2822 81.5837 68.2821 84.9421 66.8481 88.791C65.4896 92.6401 64.8101 96.7913 64.8101 101.244C64.8101 105.697 65.4897 109.848 66.8481 113.697C68.2821 117.546 70.282 120.943 72.8481 123.887C75.4141 126.83 78.471 129.132 82.0181 130.792C85.6408 132.377 89.6416 133.17 94.019 133.17C98.3963 133.17 102.359 132.377 105.906 130.792C109.528 129.132 112.623 126.83 115.189 123.887C117.755 120.943 119.717 117.546 121.076 113.697C122.51 109.848 123.227 105.697 123.227 101.244C123.227 96.7913 122.51 92.6401 121.076 88.791C119.717 84.9421 117.755 81.5837 115.189 78.7158C112.623 75.8478 109.528 73.6211 105.906 72.0361C102.359 70.3758 98.3963 69.546 94.019 69.5459Z" fill="white"/>
<path fill-rule="evenodd" clip-rule="evenodd" d="M232.381 80.8662C236.834 80.8662 240.835 81.7348 244.382 83.4707C248.005 85.1311 251.024 87.4704 253.439 90.4893C255.93 93.5081 257.74 97.0932 258.873 101.244C260.08 105.32 260.42 109.773 259.892 114.604H214.928C215.156 118.133 215.802 121.266 216.872 124C218.305 127.471 220.344 130.113 222.985 131.924C225.626 133.735 228.797 134.642 232.495 134.642C236.947 134.642 240.608 133.509 243.476 131.245C246.42 128.981 248.345 125.811 249.25 121.735H260.005C258.496 128.377 255.326 133.623 250.496 137.472C245.741 141.245 239.816 143.132 232.721 143.132C226.985 143.132 221.966 141.849 217.665 139.283C213.363 136.642 210.004 132.943 207.588 128.188C205.173 123.434 203.966 117.924 203.966 111.66C203.966 105.698 205.173 100.414 207.588 95.8105C210.079 91.2067 213.438 87.5839 217.665 84.9424C221.966 82.2254 226.872 80.8663 232.381 80.8662ZM232.156 89.0176C228.684 89.0176 225.626 89.9608 222.985 91.8477C220.419 93.659 218.419 96.263 216.985 99.6592C215.999 101.942 215.353 104.546 215.044 107.471H248.458C248.231 101.735 246.646 97.2443 243.703 93.999C240.835 90.6783 236.986 89.0177 232.156 89.0176Z" fill="white"/>
<path d="M355.512 59.583C361.173 59.583 366.191 60.6775 370.569 62.8662C375.022 64.9794 378.607 67.9983 381.324 71.9229C384.116 75.8474 385.663 80.4891 385.965 85.8477H373.965C373.814 82.527 372.909 79.6214 371.249 77.1309C369.664 74.5649 367.55 72.5648 364.909 71.1309C362.267 69.6969 359.173 68.9795 355.625 68.9795C352.003 68.9795 348.946 69.6213 346.456 70.9043C343.965 72.1873 342.077 73.8849 340.794 75.998C339.511 78.0358 338.87 80.2626 338.87 82.6777C338.87 85.3948 339.549 87.5837 340.908 89.2441C342.266 90.8291 344.078 92.0748 346.342 92.9805C348.606 93.8861 351.021 94.6026 353.587 95.1309L365.361 97.5088C372.304 98.9428 377.663 101.282 381.437 104.527C385.211 107.697 387.097 112.339 387.097 118.452C387.097 123.056 385.89 127.245 383.475 131.019C381.06 134.717 377.55 137.66 372.947 139.849C368.418 142.037 362.87 143.132 356.304 143.132C349.814 143.132 344.229 142.037 339.549 139.849C334.87 137.584 331.209 134.452 328.568 130.452C326.002 126.377 324.53 121.697 324.153 116.414H336.04C336.417 121.622 338.267 125.811 341.587 128.98C344.908 132.15 349.738 133.735 356.078 133.735C359.625 133.735 362.795 133.207 365.587 132.15C368.38 131.018 370.569 129.433 372.154 127.396C373.814 125.358 374.644 122.905 374.644 120.037C374.644 116.49 373.475 113.773 371.135 111.886C368.796 109.923 365.173 108.414 360.267 107.357L348.833 105.094C346.04 104.565 343.323 103.772 340.681 102.716C338.04 101.659 335.662 100.301 333.549 98.6406C331.512 96.9047 329.889 94.7914 328.681 92.3008C327.474 89.8102 326.87 86.8291 326.87 83.3574C326.87 78.829 328.078 74.7904 330.493 71.2432C332.983 67.6207 336.379 64.7906 340.681 62.7529C344.983 60.6397 349.927 59.583 355.512 59.583Z" fill="white"/>
<path fill-rule="evenodd" clip-rule="evenodd" d="M421.558 80.8662C426.011 80.8663 430.011 81.7349 433.558 83.4707C437.181 85.1311 440.2 87.4704 442.615 90.4893C445.105 93.5082 446.917 97.0931 448.049 101.244C449.257 105.32 449.596 109.773 449.068 114.604H404.104C404.331 118.133 404.978 121.266 406.048 124C407.482 127.472 409.52 130.113 412.162 131.924C414.803 133.735 417.973 134.642 421.671 134.642C426.124 134.642 429.785 133.509 432.653 131.245C435.596 128.981 437.521 125.811 438.426 121.735H449.181C447.672 128.377 444.502 133.623 439.671 137.472C434.917 141.245 428.991 143.132 421.897 143.132C416.161 143.132 411.142 141.849 406.84 139.283C402.538 136.642 399.18 132.943 396.765 128.188C394.35 123.434 393.142 117.924 393.142 111.66C393.142 105.698 394.35 100.414 396.765 95.8105C399.256 91.2067 402.614 87.5839 406.84 84.9424C411.142 82.2253 416.049 80.8662 421.558 80.8662ZM421.332 89.0176C417.86 89.0176 414.803 89.961 412.162 91.8477C409.596 93.659 407.596 96.263 406.162 99.6592C405.176 101.942 404.528 104.546 404.22 107.471H437.633C437.407 101.735 435.822 97.2443 432.878 93.999C430.01 90.6783 426.162 89.0176 421.332 89.0176Z" fill="white"/>
<path d="M479.233 80.8662C483.988 80.8662 488.177 81.697 491.799 83.3574C495.422 84.9424 498.291 87.2438 500.404 90.2627C502.517 93.206 503.724 96.7157 504.026 100.791H493.724C493.422 97.0931 491.95 94.2252 489.309 92.1875C486.743 90.0742 483.384 89.0176 479.233 89.0176C475.535 89.0176 472.516 89.8106 470.176 91.3955C467.912 92.9049 466.78 95.0176 466.78 97.7344C466.78 100.225 467.611 102.15 469.271 103.509C471.007 104.792 473.761 105.811 477.535 106.565L487.498 108.377C493.384 109.509 497.761 111.396 500.629 114.037C503.497 116.603 504.932 120.037 504.932 124.339C504.932 130.15 502.743 134.754 498.366 138.15C494.064 141.471 487.988 143.132 480.139 143.132C472.365 143.132 466.213 141.321 461.685 137.698C457.157 134 454.591 128.98 453.987 122.641H464.29C464.516 126.414 466.063 129.434 468.931 131.698C471.874 133.887 475.648 134.981 480.251 134.981C484.478 134.981 487.837 134.226 490.328 132.717C492.818 131.207 494.064 129.018 494.064 126.15C494.064 123.584 493.233 121.66 491.573 120.377C489.912 119.019 487.12 117.962 483.196 117.207L473.686 115.396C468.177 114.339 463.912 112.415 460.893 109.622C457.874 106.754 456.365 103.094 456.365 98.6406C456.365 95.1689 457.308 92.1122 459.195 89.4707C461.157 86.7537 463.837 84.6403 467.233 83.1309C470.629 81.6214 474.629 80.8662 479.233 80.8662Z" fill="white"/>
<path fill-rule="evenodd" clip-rule="evenodd" d="M536.896 80.8662C541.349 80.8662 545.235 81.9231 548.556 84.0361C551.877 86.1494 554.594 89.1313 556.708 92.9805V81.999H566.784V142H556.708V130.905C554.594 134.754 551.764 137.773 548.217 139.962C544.746 142.075 540.82 143.132 536.443 143.132C531.084 143.132 526.405 141.811 522.405 139.17C518.48 136.453 515.424 132.755 513.235 128.075C511.046 123.396 509.952 118.037 509.952 111.999C509.952 105.961 511.046 100.603 513.235 95.9238C515.424 91.1691 518.518 87.4707 522.518 84.8291C526.594 82.1875 531.386 80.8662 536.896 80.8662ZM538.481 90.4893C533.349 90.4893 529.16 92.3389 525.915 96.0371C522.669 99.7352 521.046 105.056 521.046 111.999C521.046 118.867 522.669 124.188 525.915 127.962C529.16 131.736 533.349 133.622 538.481 133.622C541.953 133.622 544.972 132.754 547.538 131.019C550.179 129.207 552.255 126.679 553.764 123.434C555.274 120.188 556.029 116.301 556.029 111.772C556.029 107.244 555.236 103.395 553.651 100.226C552.141 96.9803 550.066 94.5654 547.424 92.9805C544.783 91.3201 541.802 90.4893 538.481 90.4893Z" fill="white"/>
<path fill-rule="evenodd" clip-rule="evenodd" d="M699.542 80.8662C703.994 80.8662 707.995 81.7348 711.542 83.4707C715.165 85.1311 718.184 87.4704 720.599 90.4893C723.09 93.5081 724.901 97.0932 726.033 101.244C727.24 105.32 727.581 109.773 727.052 114.604H682.088C682.316 118.133 682.962 121.266 684.032 124C685.466 127.471 687.504 130.113 690.145 131.924C692.787 133.735 695.957 134.642 699.655 134.642C704.108 134.642 707.768 133.509 710.636 131.245C713.58 128.981 715.504 125.811 716.41 121.735H727.166C725.656 128.377 722.486 133.623 717.656 137.472C712.901 141.245 706.976 143.132 699.881 143.132C694.146 143.132 689.127 141.849 684.825 139.283C680.523 136.642 677.164 132.943 674.749 128.188C672.333 123.434 671.127 117.924 671.126 111.66C671.126 105.698 672.333 100.414 674.749 95.8105C677.239 91.2067 680.598 87.584 684.825 84.9424C689.127 82.2254 694.032 80.8663 699.542 80.8662ZM699.315 89.0176C695.843 89.0177 692.786 89.9609 690.145 91.8477C687.579 93.659 685.579 96.263 684.145 99.6592C683.159 101.942 682.513 104.546 682.205 107.471H715.618C715.391 101.735 713.806 97.2443 710.863 93.999C707.995 90.6782 704.145 89.0176 699.315 89.0176Z" fill="white"/>
<path d="M296.962 80.8662C303.076 80.8662 307.982 82.8293 311.68 86.7539C315.454 90.603 317.34 96.0746 317.34 103.169V142H306.585V106.792C306.585 101.584 305.453 97.5835 303.189 94.791C300.925 91.9233 297.604 90.4893 293.227 90.4893C290.51 90.4893 288.02 91.2067 285.755 92.6406C283.491 94.0746 281.679 96.1123 280.321 98.7539C279.038 101.32 278.396 104.377 278.396 107.924V142H267.641V81.999H277.604V92.3008C279.642 88.9045 282.321 86.1494 285.642 84.0361C288.963 81.9231 292.736 80.8663 296.962 80.8662Z" fill="white"/>
<path d="M644.172 80.8662C650.361 80.8662 655.266 82.8293 658.889 86.7539C662.587 90.6031 664.437 96.0744 664.437 103.169V142H653.682V106.679C653.682 101.471 652.55 97.4703 650.286 94.6777C648.021 91.8854 644.776 90.4893 640.549 90.4893C637.832 90.4893 635.342 91.2067 633.078 92.6406C630.889 93.9991 629.153 95.9613 627.87 98.5273C626.587 101.093 625.946 104.075 625.946 107.471V142H615.191V106.679C615.191 101.471 614.059 97.4703 611.794 94.6777C609.53 91.8853 606.247 90.4893 601.945 90.4893C599.228 90.4893 596.737 91.2066 594.473 92.6406C592.284 93.9991 590.548 95.9613 589.265 98.5273C587.982 101.093 587.34 104.075 587.34 107.471V142H576.585V81.999H586.548V92.3008C588.662 88.7535 591.303 85.9606 594.473 83.9229C597.718 81.8852 601.417 80.8662 605.568 80.8662C610.021 80.8662 613.832 81.9987 617.001 84.2627C620.247 86.4514 622.511 89.5837 623.794 93.6592C625.908 89.7346 628.663 86.6402 632.059 84.376C635.531 82.0364 639.569 80.8662 644.172 80.8662Z" fill="white"/>
</svg>
