<?xml version="1.0" encoding="UTF-8"?>
<svg version="1.1" xmlns="http://www.w3.org/2000/svg" width="690" height="690">
<path d="M0 0 C8.58 0 17.16 0 26 0 C26 0.66 26 1.32 26 2 C27.32 2 28.64 2 30 2 C30 3.32 30 4.64 30 6 C31.32 6.33 32.64 6.66 34 7 C34 150.55 34 294.1 34 442 C32.68 442 31.36 442 30 442 C30 444.31 30 446.62 30 449 C28.68 449 27.36 449 26 449 C26 449.99 26 450.98 26 452 C17.42 452 8.84 452 0 452 C0 451.34 0 450.68 0 450 C-2.31 449.67 -4.62 449.34 -7 449 C-7 445.37 -7 441.74 -7 438 C-8.32 438 -9.64 438 -11 438 C-11 298.08 -11 158.16 -11 14 C-9.68 13.67 -8.36 13.34 -7 13 C-7 10.69 -7 8.38 -7 6 C-6.01 6 -5.02 6 -4 6 C-4 4.68 -4 3.36 -4 2 C-2.68 2 -1.36 2 0 2 C0 1.34 0 0.68 0 0 Z " fill="#343434" transform="translate(414,120)"/>
<path d="M0 0 C8.58 0 17.16 0 26 0 C26 0.66 26 1.32 26 2 C27.32 2 28.64 2 30 2 C30 3.32 30 4.64 30 6 C31.32 6 32.64 6 34 6 C34 150.87 34 295.74 34 445 C32.68 445.33 31.36 445.66 30 446 C30 446.99 30 447.98 30 449 C28.68 449.33 27.36 449.66 26 450 C26 450.66 26 451.32 26 452 C21.72929442 452.08692074 17.45881542 452.14036515 13.1875 452.1875 C11.36508789 452.22520508 11.36508789 452.22520508 9.50585938 452.26367188 C8.34248047 452.27333984 7.17910156 452.28300781 5.98046875 452.29296875 C4.90692139 452.3086792 3.83337402 452.32438965 2.72729492 452.34057617 C-0 452 -0 452 -1.8737793 450.66918945 C-3 449 -3 449 -3 446 C-4.32 446 -5.64 446 -7 446 C-7 300.8 -7 155.6 -7 6 C-5.68 6 -4.36 6 -3 6 C-3 4.68 -3 3.36 -3 2 C-2.01 2 -1.02 2 0 2 C0 1.34 0 0.68 0 0 Z " fill="#343434" transform="translate(249,120)"/>
<path d="M0 0 C4.62 0 9.24 0 14 0 C14 1.32 14 2.64 14 4 C16.64 4 19.28 4 22 4 C22 6.31 22 8.62 22 11 C23.32 11.33 24.64 11.66 26 12 C26.04574014 58.44777233 26.08100022 104.89554227 26.10213066 151.34333267 C26.10463219 156.82223158 26.10722082 162.30113045 26.10986328 167.7800293 C26.1103879 168.87081676 26.11091252 169.96160422 26.11145304 171.08544584 C26.12016459 188.76614262 26.13593868 206.44682645 26.15430559 224.12751553 C26.1729838 242.25857817 26.18411231 260.38963401 26.18817699 278.52070588 C26.19092637 289.71584872 26.19962177 300.91095494 26.21583293 312.10608651 C26.22637418 319.77455167 26.22960714 327.44299779 26.22700275 335.11146966 C26.22571699 339.54112432 26.22773985 343.97071484 26.23841095 348.4003582 C26.2480985 352.45112519 26.24866439 356.5017845 26.24179779 360.5525563 C26.24094834 362.02231947 26.24352342 363.4920892 26.24976636 364.96183936 C26.2577296 366.95138276 26.25229771 368.94096657 26.24609566 370.93051624 C26.2468551 372.03816045 26.24761454 373.14580465 26.24839699 374.28701383 C26 377 26 377 24 380 C23.34 380 22.68 380 22 380 C22 380.99 22 381.98 22 383 C20.68 383 19.36 383 18 383 C18 384.32 18 385.64 18 387 C10.74 387 3.48 387 -4 387 C-4 385.68 -4 384.36 -4 383 C-5.32 383 -6.64 383 -8 383 C-8 382.01 -8 381.02 -8 380 C-9.32 379.67 -10.64 379.34 -12 379 C-12 257.56 -12 136.12 -12 11 C-10.68 11 -9.36 11 -8 11 C-8 8.69 -8 6.38 -8 4 C-5.69 4 -3.38 4 -1 4 C-0.67 2.68 -0.34 1.36 0 0 Z " fill="#343434" transform="translate(471,156)"/>
<path d="M0 0 C4.62 0 9.24 0 14 0 C14 1.32 14 2.64 14 4 C15.32 4 16.64 4 18 4 C18 4.99 18 5.98 18 7 C19.32 7 20.64 7 22 7 C22 8.32 22 9.64 22 11 C22.99 11 23.98 11 25 11 C26.17527395 18.42674421 26.14286419 25.78764419 26.13371277 33.29167175 C26.13558274 34.74694306 26.13788419 36.20221386 26.14057809 37.65748388 C26.14667893 41.64311577 26.14656454 45.62872663 26.14538372 49.61436212 C26.14517929 53.91770078 26.15070232 58.22103276 26.15544128 62.52436829 C26.1637378 70.94850131 26.16649563 79.37262733 26.16705366 87.7967641 C26.16752907 94.64197432 26.16958507 101.48718224 26.17275429 108.33239174 C26.18155632 127.7386094 26.1861741 147.14482154 26.18542381 166.55104121 C26.18538386 167.59662681 26.1853439 168.64221241 26.18530273 169.71948242 C26.18526185 170.76634326 26.18522097 171.81320409 26.18517885 172.89178798 C26.18477199 189.87547607 26.19435287 206.85914203 26.2084411 223.84282371 C26.22279181 241.28032405 26.22971208 258.71781359 26.22884732 276.15531999 C26.22851502 285.9458585 26.23127721 295.73637377 26.24202538 305.52690697 C26.25111296 313.85807004 26.25331982 322.18919933 26.24651595 330.5203652 C26.24324258 334.77209833 26.24322353 339.02376659 26.2518692 343.27549362 C26.2596986 347.16568169 26.25833948 351.05575305 26.24958507 354.94593815 C26.24804225 356.35493126 26.24989547 357.76393293 26.25544515 359.17291596 C26.26247981 361.08519658 26.25603188 362.99751268 26.24888897 364.9097929 C26.24910634 365.97285017 26.24932371 367.03590743 26.24954766 368.13117856 C25.99035642 371.11086342 25.25412269 373.3000609 24 376 C23.34 376 22.68 376 22 376 C22 378.31 22 380.62 22 383 C20.68 383 19.36 383 18 383 C17.67 384.32 17.34 385.64 17 387 C10.07 387 3.14 387 -4 387 C-4 385.68 -4 384.36 -4 383 C-5.32 383 -6.64 383 -8 383 C-8 382.01 -8 381.02 -8 380 C-9.32 380 -10.64 380 -12 380 C-12 257.24 -12 134.48 -12 8 C-10.68 7.67 -9.36 7.34 -8 7 C-8 6.01 -8 5.02 -8 4 C-5.69 4 -3.38 4 -1 4 C-0.67 2.68 -0.34 1.36 0 0 Z " fill="#333333" transform="translate(205,156)"/>
<path d="M0 0 C4.29 0 8.58 0 13 0 C13.33 1.32 13.66 2.64 14 4 C16.31 4 18.62 4 21 4 C21 6.64 21 9.28 21 12 C22.32 12 23.64 12 25 12 C25 107.04 25 202.08 25 300 C23.68 300.33 22.36 300.66 21 301 C21 302.32 21 303.64 21 305 C19.68 305 18.36 305 17 305 C17 306.32 17 307.64 17 309 C13.89585298 309.02903577 10.79174091 309.0468107 7.6875 309.0625 C6.80642578 309.07087891 5.92535156 309.07925781 5.01757812 309.08789062 C4.17001953 309.09111328 3.32246094 309.09433594 2.44921875 309.09765625 C1.27879028 309.10551147 1.27879028 309.10551147 0.0847168 309.11352539 C-2 309 -2 309 -5 308 C-5 305.69 -5 303.38 -5 301 C-6.32 301 -7.64 301 -9 301 C-9 205.63 -9 110.26 -9 12 C-7.68 12 -6.36 12 -5 12 C-5 9.36 -5 6.72 -5 4 C-3.68 4 -2.36 4 -1 4 C-0.67 2.68 -0.34 1.36 0 0 Z " fill="#333333" transform="translate(157,212)"/>
<path d="M0 0 C3.0390625 -0.29296875 3.0390625 -0.29296875 6.625 -0.1875 C7.81351563 -0.16042969 9.00203125 -0.13335937 10.2265625 -0.10546875 C11.14179687 -0.07066406 12.05703125 -0.03585938 13 0 C13 1.32 13 2.64 13 4 C14.134375 3.979375 15.26875 3.95875 16.4375 3.9375 C20 4 20 4 21 5 C21.09705965 6.60033713 21.12371614 8.20498141 21.12304783 9.80825901 C21.12503888 10.85526873 21.12702993 11.90227845 21.12908131 12.98101574 C21.12471205 14.72757321 21.12471205 14.72757321 21.12025452 16.50941467 C21.12110894 17.73533481 21.12196337 18.96125494 21.12284368 20.22432417 C21.12421192 23.64255808 21.12106425 27.06073544 21.11606562 30.47896254 C21.11176458 34.15927929 21.1132073 37.83959416 21.1139679 41.51991272 C21.11449335 47.90144837 21.1113443 54.28297383 21.10573006 60.66450691 C21.09761797 69.89123846 21.09500014 79.11796506 21.09374207 88.34469979 C21.09155109 103.31289185 21.08488976 118.28107847 21.07543945 133.24926758 C21.06626652 147.79321261 21.05918511 162.33715617 21.05493164 176.88110352 C21.05453756 178.22485744 21.05453756 178.22485744 21.05413551 179.59575791 C21.05283051 184.08970864 21.05156679 188.58365938 21.05032361 193.07761014 C21.03994956 230.38507726 21.02233 267.69253821 21 305 C19.68 305 18.36 305 17 305 C16.67 306.32 16.34 307.64 16 309 C9.4 309 2.8 309 -4 309 C-4.33 307.68 -4.66 306.36 -5 305 C-6.32 304.67 -7.64 304.34 -9 304 C-9 206.32 -9 108.64 -9 8 C-7.68 8 -6.36 8 -5 8 C-5 6.68 -5 5.36 -5 4 C-4.01 3.67 -3.02 3.34 -2 3 C-1.34 2.01 -0.68 1.02 0 0 Z " fill="#333333" transform="translate(517,212)"/>
<path d="M0 0 C4.62 0 9.24 0 14 0 C14 0.99 14 1.98 14 3 C15.32 3.33 16.64 3.66 18 4 C18 71.98 18 139.96 18 210 C16.68 210 15.36 210 14 210 C13.67 211.32 13.34 212.64 13 214 C8.71 214 4.42 214 0 214 C-0.33 212.68 -0.66 211.36 -1 210 C-1.66 210 -2.32 210 -3 210 C-3 141.69 -3 73.38 -3 3 C-2.34 3 -1.68 3 -1 3 C-0.67 2.01 -0.34 1.02 0 0 Z " fill="#333333" transform="translate(119,284)"/>
<path d="M0 0 C4.62 0 9.24 0 14 0 C14 0.99 14 1.98 14 3 C14.99 3.33 15.98 3.66 17 4 C17 71.98 17 139.96 17 210 C16.01 210 15.02 210 14 210 C14 211.32 14 212.64 14 214 C9.38 214 4.76 214 0 214 C0 212.68 0 211.36 0 210 C-1.32 210 -2.64 210 -4 210 C-4 142.02 -4 74.04 -4 4 C-2.68 3.67 -1.36 3.34 0 3 C0 2.01 0 1.02 0 0 Z " fill="#333333" transform="translate(557,284)"/>
</svg>
