<svg version="1.1" id="Layer_1" xmlns="http://www.w3.org/2000/svg" xmlns:xlink="http://www.w3.org/1999/xlink" x="0px" y="0px"
	 width="100%" viewBox="0 0 208 208" enable-background="new 0 0 208 208" xml:space="preserve">
<path fill="#010101" opacity="1.000000" stroke="none" 
	d="
M136.000000,209.000000 
	C90.666672,209.000000 45.833340,209.000000 1.000006,209.000000 
	C1.000004,139.666672 1.000004,70.333344 1.000002,1.000015 
	C70.333321,1.000010 139.666641,1.000010 208.999969,1.000005 
	C208.999985,70.333321 208.999985,139.666641 209.000000,208.999969 
	C184.833328,209.000000 160.666672,209.000000 136.000000,209.000000 
M91.499733,173.494781 
	C108.155113,173.494751 124.811592,173.373245 141.465591,173.524948 
	C163.117661,173.722153 175.784668,157.333023 175.198883,139.951340 
	C174.402740,116.327438 175.000732,92.656563 175.000519,69.005829 
	C175.000351,50.224655 162.200378,36.770535 143.424301,36.573055 
	C117.777748,36.303314 92.123634,36.282154 66.477715,36.580379 
	C47.686806,36.798882 34.999538,50.221924 34.999454,69.042465 
	C34.999348,93.692520 34.987938,118.342583 35.003616,142.992630 
	C35.013451,158.453171 47.188164,171.919586 62.571892,172.922073 
	C71.854187,173.526947 81.188683,173.330933 91.499733,173.494781 
z"/>
<path fill="#FEFEFE" opacity="1.000000" stroke="none" 
	d="
M90.999725,173.494797 
	C81.188683,173.330933 71.854187,173.526947 62.571892,172.922073 
	C47.188164,171.919586 35.013451,158.453171 35.003616,142.992630 
	C34.987938,118.342583 34.999348,93.692520 34.999454,69.042465 
	C34.999538,50.221924 47.686806,36.798882 66.477715,36.580379 
	C92.123634,36.282154 117.777748,36.303314 143.424301,36.573055 
	C162.200378,36.770535 175.000351,50.224655 175.000519,69.005829 
	C175.000732,92.656563 174.402740,116.327438 175.198883,139.951340 
	C175.784668,157.333023 163.117661,173.722153 141.465591,173.524948 
	C124.811592,173.373245 108.155113,173.494751 90.999725,173.494797 
M81.200546,72.443100 
	C85.365593,76.867455 85.298256,78.067062 81.708054,81.924843 
	C78.255424,85.634789 75.608353,84.495811 72.532043,81.384857 
	C68.233353,77.037750 66.922997,77.228760 62.315323,81.827950 
	C57.823898,86.311104 57.777927,87.773323 61.991169,92.138878 
	C66.737473,97.056755 68.038643,97.148094 72.611961,92.884377 
	C77.058052,88.739281 77.704514,88.857841 82.460602,93.023079 
	C83.964973,94.340561 86.898117,96.208214 87.793434,95.640701 
	C90.777420,93.749283 93.745384,91.209488 95.430962,88.197159 
	C96.112244,86.979637 93.879028,83.516907 92.242393,81.752960 
	C89.405212,78.695068 89.165970,76.313614 92.173462,73.238930 
	C97.383881,67.912132 97.134499,66.844887 91.768456,61.575729 
	C88.715370,58.577766 86.089897,58.114414 82.814232,61.267372 
	C77.664032,66.224663 77.315323,67.338303 81.200546,72.443100 
M125.561615,133.800140 
	C124.370544,129.313751 127.801086,127.231743 130.706970,125.886322 
	C132.126038,125.229301 134.842697,127.283104 136.926163,128.212708 
	C137.500519,128.468979 137.856354,129.400864 138.404526,129.496857 
	C140.464172,129.857513 143.434021,130.968887 144.472198,130.033524 
	C146.995392,127.760139 150.438889,124.379852 150.261215,121.657623 
	C149.822540,114.936722 141.437469,112.361313 136.779129,117.129860 
	C133.439133,120.548874 130.896271,120.470062 127.621857,117.062897 
	C123.135941,112.395103 121.734634,112.592834 117.039284,117.323380 
	C112.621231,121.774551 112.422813,123.190559 116.997200,127.546448 
	C120.674133,131.047745 120.605713,133.901489 116.810425,137.030579 
	C115.927277,137.758698 114.581581,138.867477 114.673248,139.659363 
	C114.946213,142.017349 115.253349,144.750320 116.615799,146.508774 
	C118.379654,148.785294 120.395828,152.052963 124.376808,150.188965 
	C131.580872,146.815857 132.605255,141.579178 127.205879,135.960556 
	C126.747131,135.483170 126.342445,134.953827 125.561615,133.800140 
M60.946419,126.420174 
	C67.238449,132.812439 67.362061,132.919800 73.653404,127.135971 
	C76.788818,124.253487 79.061508,125.044113 81.718742,127.710884 
	C84.496216,130.498322 85.414619,132.932877 82.312996,136.199158 
	C76.933174,141.864594 77.073677,142.992203 82.669525,148.179047 
	C86.569023,151.793533 87.979279,151.699753 92.244553,147.542297 
	C96.898285,143.006210 97.060486,141.673874 93.449287,137.646500 
	C88.566551,132.201065 88.566528,132.200180 93.213860,127.128990 
	C97.035446,122.958832 96.943886,121.646690 92.521194,117.202507 
	C88.129929,112.789894 86.656952,112.673996 82.565659,116.419167 
	C77.410202,121.138474 77.361290,121.190605 72.098045,116.253662 
	C69.649979,113.957375 67.091499,112.440895 64.359703,115.332909 
	C61.648075,118.203598 56.387783,120.391174 60.946419,126.420174 
M118.770813,80.157631 
	C118.425964,80.518654 118.084709,80.883186 117.735718,81.240173 
	C112.593018,86.500740 112.505501,87.709824 116.941338,92.257446 
	C121.777267,97.215279 122.545753,97.049675 128.367218,92.173347 
	C129.834808,90.944016 132.489243,90.389427 134.416763,90.689743 
	C135.916763,90.923431 137.149216,92.951210 138.475006,94.208580 
	C140.591095,96.215454 142.919205,96.750397 145.042343,94.504944 
	C147.414566,91.996101 151.747910,90.322914 150.351974,85.776688 
	C148.214874,78.816681 141.525879,77.033806 136.445892,82.064758 
	C133.087585,85.390625 130.578598,84.596855 127.595001,81.625221 
	C124.588066,78.630348 124.504189,76.176125 127.573181,73.172935 
	C129.146622,71.633232 131.529373,68.602287 131.004822,67.659805 
	C129.238892,64.486862 126.835236,60.794849 123.740883,59.446762 
	C119.447006,57.576092 117.179787,62.309616 114.817764,65.077393 
	C112.097771,68.264610 114.865982,70.514038 116.900719,72.712463 
	C118.685684,74.641022 121.084076,76.370888 118.770813,80.157631 
z"/>
<path fill="#080808" opacity="1.000000" stroke="none" 
	d="
M80.950195,72.167915 
	C77.315323,67.338303 77.664032,66.224663 82.814232,61.267372 
	C86.089897,58.114414 88.715370,58.577766 91.768456,61.575729 
	C97.134499,66.844887 97.383881,67.912132 92.173462,73.238930 
	C89.165970,76.313614 89.405212,78.695068 92.242393,81.752960 
	C93.879028,83.516907 96.112244,86.979637 95.430962,88.197159 
	C93.745384,91.209488 90.777420,93.749283 87.793434,95.640701 
	C86.898117,96.208214 83.964973,94.340561 82.460602,93.023079 
	C77.704514,88.857841 77.058052,88.739281 72.611961,92.884377 
	C68.038643,97.148094 66.737473,97.056755 61.991169,92.138878 
	C57.777927,87.773323 57.823898,86.311104 62.315323,81.827950 
	C66.922997,77.228760 68.233353,77.037750 72.532043,81.384857 
	C75.608353,84.495811 78.255424,85.634789 81.708054,81.924843 
	C85.298256,78.067062 85.365593,76.867455 80.950195,72.167915 
z"/>
<path fill="#080808" opacity="1.000000" stroke="none" 
	d="
M125.737129,134.124390 
	C126.342445,134.953827 126.747131,135.483170 127.205879,135.960556 
	C132.605255,141.579178 131.580872,146.815857 124.376808,150.188965 
	C120.395828,152.052963 118.379654,148.785294 116.615799,146.508774 
	C115.253349,144.750320 114.946213,142.017349 114.673248,139.659363 
	C114.581581,138.867477 115.927277,137.758698 116.810425,137.030579 
	C120.605713,133.901489 120.674133,131.047745 116.997200,127.546448 
	C112.422813,123.190559 112.621231,121.774551 117.039284,117.323380 
	C121.734634,112.592834 123.135941,112.395103 127.621857,117.062897 
	C130.896271,120.470062 133.439133,120.548874 136.779129,117.129860 
	C141.437469,112.361313 149.822540,114.936722 150.261215,121.657623 
	C150.438889,124.379852 146.995392,127.760139 144.472198,130.033524 
	C143.434021,130.968887 140.464172,129.857513 138.404526,129.496857 
	C137.856354,129.400864 137.500519,128.468979 136.926163,128.212708 
	C134.842697,127.283104 132.126038,125.229301 130.706970,125.886322 
	C127.801086,127.231743 124.370544,129.313751 125.737129,134.124390 
z"/>
<path fill="#080808" opacity="1.000000" stroke="none" 
	d="
M60.687370,126.147385 
	C56.387783,120.391174 61.648075,118.203598 64.359703,115.332909 
	C67.091499,112.440895 69.649979,113.957375 72.098045,116.253662 
	C77.361290,121.190605 77.410202,121.138474 82.565659,116.419167 
	C86.656952,112.673996 88.129929,112.789894 92.521194,117.202507 
	C96.943886,121.646690 97.035446,122.958832 93.213860,127.128990 
	C88.566528,132.200180 88.566551,132.201065 93.449287,137.646500 
	C97.060486,141.673874 96.898285,143.006210 92.244553,147.542297 
	C87.979279,151.699753 86.569023,151.793533 82.669525,148.179047 
	C77.073677,142.992203 76.933174,141.864594 82.312996,136.199158 
	C85.414619,132.932877 84.496216,130.498322 81.718742,127.710884 
	C79.061508,125.044113 76.788818,124.253487 73.653404,127.135971 
	C67.362061,132.919800 67.238449,132.812439 60.687370,126.147385 
z"/>
<path fill="#080808" opacity="1.000000" stroke="none" 
	d="
M118.965729,79.844086 
	C121.084076,76.370888 118.685684,74.641022 116.900719,72.712463 
	C114.865982,70.514038 112.097771,68.264610 114.817764,65.077393 
	C117.179787,62.309616 119.447006,57.576092 123.740883,59.446762 
	C126.835236,60.794849 129.238892,64.486862 131.004822,67.659805 
	C131.529373,68.602287 129.146622,71.633232 127.573181,73.172935 
	C124.504189,76.176125 124.588066,78.630348 127.595001,81.625221 
	C130.578598,84.596855 133.087585,85.390625 136.445892,82.064758 
	C141.525879,77.033806 148.214874,78.816681 150.351974,85.776688 
	C151.747910,90.322914 147.414566,91.996101 145.042343,94.504944 
	C142.919205,96.750397 140.591095,96.215454 138.475006,94.208580 
	C137.149216,92.951210 135.916763,90.923431 134.416763,90.689743 
	C132.489243,90.389427 129.834808,90.944016 128.367218,92.173347 
	C122.545753,97.049675 121.777267,97.215279 116.941338,92.257446 
	C112.505501,87.709824 112.593018,86.500740 117.735718,81.240173 
	C118.084709,80.883186 118.425964,80.518654 118.965729,79.844086 
z"/>
</svg>